/* XPM */
static char *agyd1_wdm1f[] = {
/* columns rows colors chars-per-pixel */
"128 128 33 1 ",
"  c None",
". c #161615",
"X c #171817",
"o c #181817",
"O c #1B1C1B",
"+ c #242424",
"@ c #282827",
"# c #2B2B2B",
"$ c #353535",
"% c #373738",
"& c #3C3C3C",
"* c #444444",
"= c #474748",
"- c #4C4C4C",
"; c #4F504F",
": c #545454",
"> c #575857",
", c #585857",
"< c #575758",
"1 c #585758",
"2 c #5B5B5B",
"3 c #636363",
"4 c #6C6C6C",
"5 c #737373",
"6 c #7B7B7B",
"7 c #848484",
"8 c #8B8B8B",
"9 c #949494",
"0 c #9C9C9C",
"q c #A3A3A3",
"w c #ABABAB",
"e c #B3B3B3",
"r c #BABABA",
/* pixels */
"                                                                                                                                ",
"                                                                                                                                ",
"                                                                                                                                ",
"                                                                                                                                ",
"                                                                                                                                ",
"                                                                                                                                ",
"                                                                                                                                ",
"                                                                                                                                ",
"                                                                                                                                ",
"                                                                                                                                ",
"                                                                                                                                ",
"                                                                                                                                ",
"                                                                               OOOOoO                                           ",
"                                                                           @++@####@@Oooo                                       ",
"                                                                         @##&*--;----*&$+Oo                                     ",
"                                                                       ##&*--**&&&&&**=--&#Oo                                   ",
"                                                                      $&-;*&&&&&&&&&*&&&**-&+o                                  ",
"                                                                    &&*-*$&&&&&*=--=**&&&&*=-$o.                                ",
"                                                                   &*--&$**&=2455666542-**&&*;&OX                               ",
"                                                                  **-*&&*$*35543322346653-&&&&;*O.                              ",
"                                                                  *:*$&*$,64:=**&*&**=,4653**&*-*O                              ",
"                                                                 -:*&&*$46;&***=====***&-564*&&&;&O                             ",
"                                                                -:-$&*$45&&=*=*=*==***=***364&*&*;#.                            ",
"                                                                :-&&*$35$*-*=======*-=*==**254&*%=-+                            ",
"                                                               2:*$*&-6&&-*====*&&&*&===*=*&26,&&&;%o                           ",
"                                                               2-$&*&6:$-====*&:3443,*&-=*==*35=&&=-@                           ",
"                                                              22&&*&:6&*====&-56577764:&==*=**53&&&;$                           ",
"                                                              3;$&-$54&-==-&:64467899662*=*=**:5*&&-*+                          ",
"                                                              3*$***72**===-63=     8966;*===**5:&&*-#                          ",
"                                                              2&&-&:7:*-=-=55$       6855&*===&33&&&:$                          ",
"                                                             32$&-&26----==6;         845;***=&:4&&&:&                          ",
"                                                             4:%*:$45*-=-**5&          45,**==*=5&*$-*                          ",
"                                                             4;$=;&45&-=-*-5#          443&=*=**5&&%-*                          ",
"                                                             4-%*;%45*---*=5$          352*==-&*5&*&--                          ",
"                                                             4-$*;&36&----*6=          76:*==-&-5$*$*-                          ",
"                                                             3*$*-&,7=--=-&54o         65*-=*-&43&*$--                          ",
"                                                             2*$=;**8;=---*,8:        47-&---*:7:&*$-*                          ",
"                                                            3:&&=--&64&;---*383$    &472&--=-*47&*&$-*                          ",
"                                                            2-$&=-;&37*-----*3763324672&--=-*-74$-&&:&                          ",
"                                                           :2*%*----&83&-----=:577774;&-==--*47***$*-                           ",
"                                                           :-&&-;--;*28;*;----=*-2,-*-------:73$-&$--                           ",
"                                                          -:*$*------%58*=;==----=*----=--**66$--&&:&                           ",
"                                                         -;-&&--;;----%77=*---=----=--=--**57**-*$*-                            ",
"                          #####                         *--&&*----;---=&68:*=;;--------=*-67*&;-&&:&                            ",
"                     $######@@@++@#                    &*:*$*-:---;-;-;-&495-&*==---=*&=385&&::*$--                             ",
"                   $$$**------**$#++#                 &*-*&&-:-:;;;--;-;-%;6863;=***-,5872$-::-$*:                              ",
"                 $&*---**&&&&&**=-*$+O#$           $$$*;*$*--------;;;--;;*&:5888778885:&&-2::&*:                               ",
"                **--*&&&&**-***&&&*--$@O@#$     $$#$*--&$*--:222321:--;;;-;;*&&-,22,;=&&-:22:&&:                                ",
"               --;*$&*=-*-----=-**&&*--&#@++@@@##%*--*%&*:345554455443:--;;-;;;=*****-;;:11-&*,                                 ",
"             =-:*&&*-*-267898864:---&$**---****----&%&*;4543222222233454;-;;;--;;;-;;-;:1-*&-2                                  ",
"             ::*$&:*-69q98766789072*--&&&&&***&*&&&&*-25432233233323322452--;;;;;----;;:=&&11                                   ",
"            2:&&*:*40063:-:-:-:24807--2--**&&&&&*=-:;4532233222222222232354-;;;;;;;;-:;*%=2                                     ",
"           22&$*:*7q62-:::2:2::::-390:-::2:::::::::-452322222222222222333244-;;;;;;;:;*$=1                                      ",
"          22*$*:*803-:::::::::::::-:6q2-::::::::;:;44232222222122112222223244-:;;:;;-*$*1                                       ",
"          3-$&:&70:-2::,::::::::::::-60:-::::::::;3522222222122211122222223253-;;;;;=&&:                                        ",
"         32$&:*5q--2:1:,<:---:,::::::*70*::::::::1533322222<2::211111212222325:;;;;-&$:*                                        ",
"         4*$--:q2*22:22:=:344,*-2:::2:-06*::::::;4423222222:2:::11:111122223244-;;-*$-:                                         ",
"         3$&:&78$22:2:-27qq00093*:2::2-30:::<:::152322222:2::::<:::111122222325::--&&:&                                         ",
"        4:$*:-q--2:22-3q0653247q6*:::::-95*2:::-44232222<2::::::::::::1122223243-:*$*-                                          ",
"        4&&:*59&22:2:2q73-     4q6-2::2-50*:::2:433222<2<:2::::;;:::1::122222235:-*$:*                                          ",
"        3$&2*85&2::2-882*       4q3:::::20:::::253231221:>::::;:;;::;11111222325:-&&:$                                          ",
"        2$-:*05-222:2q2:         89-,<2:-03-22:352322221,::::::;;::;1;1:121223252*&*-                                           ",
"        :$-:-q6:222-502&         40:::::-95*:2:342322211::::-:::;;;::1:1112223242*&--                                           ",
"        :$::-w6:2:2-6w5          3q3:222*85*2::34232212:1::::---;;;;;;11211223243*$-*                                           ",
"        -$::-w7:222-6w5          2q2:2:2-86*2>:44232222:1:::;;:;;;;;;:1:112222243*$:*                                           ",
"        :&22-q7:222-5w6%         50*2:2:*94*2::34232222,::::::--;;;::::1111223253*$-*                                           ",
"        :&:2*08:222:3q7:         06*2:22-03-2::35232222:1::::;-:;:::::::122223252*$-*                                           ",
"        :$:3*7q:2,22:803*       6q-::2::2q-:22:2532221221::::;::;;;:::11,2222225:-$--@                                          ",
"        2&:3-3w3:22222q93*     6w5*22:2-59*2<2:25322222:2::<::::::;11:1112223335:-&*-#                                          ",
"        3*-32-w6;2222:2qq632259w6-22:22-q5*22:2:44233222112:::::::::111122232243::&&:$                                          ",
"         --33*7q:22222::7qqqqq94-22222-5q*22222:352322222,:::,:::::1:111,2222261::&&-&+                                         ",
"         :*232-w6-2,222::23553::222:2:2w4*3:2:22:44222222222:2::111111222223244:2:-&*-#                                         ",
"         3*:44*4e3-3222222:::22222222:09&2222<21226232222222:2:2:::22222222336,::::&&-$@                                        ",
"          :*343&7e2-222222222222222:-9w-:22<22222:3523322222222:2222<222222253:,2:2-$-=#+                                       ",
"           -:443&8e3*2322222222222-10w:-3<22:22222:54232222222<22222222233254:,:::::&&-&@                                       ",
"           2*2542&6e7-*:23222222::5w0--212222222222:552232222222222222322254:11:2::2;&*-$@                                      ",
"            :-4553&3qw72---:--:25qw6&;3244445655443324532233322222223232254:11,,:2:>:*&*-#+                                     ",
"             ;-4554-*40wq97679qww7;*24455666666666654245432222332323222454<:2111:21:2:*%*-#+#                                   ",
"              -:45553-*:57909863**<45555544333345566664345433222222334542,22,,222:222::*&*-&+@                                  ",
"               :-4566542-*****-:35554432------;-::245665334555445455543:221122::----::2:*$*-*#+#                                ",
"                :-2466666555555556542-*--:       :-;:3666422234443322:222:22--:346553,--:-&&--$+@                               ",
"                  ::246666666666542-*-:             ;::45653<2:2:22:221222--49qq0990qq95:-:&$*-&+@                              ",
"                   ::::234555432:---:                 :-35553222222222222*3qq742::::237qq6-:-$*-&@                              ",
"                      :-::-::-----:                    :-25543222222:22:-8w6:-::22<22:::5q0:--$*-&@                             ",
"                                                        2-:55422222222::q02-22222:2:222::29q3--&*-$+                            ",
"                                                         2-2553222222:-q9-:222222222:2222::8w2-*$--#                            ",
"                                                          2*344222222*00-22222222:2222:22:1:8q:;&&-&O                           ",
"                                                           -*4542223*6w::22222:--:--*:222:2:208*:$*:$                           ",
"                                                           3*:443222-w4-32222-,60q0072*222:2:4w3-*&-*                           ",
"                                                            :*34323*6q-22222:6w065570w6->2,22:89--%=-#                          ",
"                                                            3*:4322*q6-322228w5$     6w7-22:2:4q:;&&:$                          ",
"                                                             -*343:2w:2222:5e3        5w5-22:1:q6-=%:*                          ",
"                                                             2&243-5q-2223*87          90:2222-88--$--                          ",
"                                                             3&:43*80-3222-q:          6q4:322-60-:$*-                          ",
"                                                             4**33*99:222<20&          506:223:4q-:$*:                          ",
"                                                             4**24*99:223:30&          406:323:2q-:&&:                          ",
"                                                             4**24-80:23223q-          405:323-4q-:&&:                          ",
"                                                              -*34*7q:3232:q4         74q2,223-50*:&*:                          ",
"                                                              -*34:4e32333:8w-       79w9-3223*78*:&*:                          ",
"                                                              2&342:e5:3322:w0::    88qw3:3223&q4-:$*-                          ",
"                                                              2*344*09:333323qq545677qe4:3223-2w-:-$-*                          ",
"                                                              3*:45-4r323223239eq990wq4:22322-q8*2*%:                           ",
"                                                               --453*q9-333232<4809852:32223:8w:::&&;                           ",
"                                                               2*355:3r5:323233::::<2232323:6r6*3-$-*                           ",
"                                                                -:555*6r3:3332333333232233:5e9&3:*&-                            ",
"                                                                2*3554&9r3-33323323232332:6eq*22;$-*                            ",
"                                                                 :-5653*8r6-:2333333332:27e0-:3:*&-                             ",
"                                                                  -:5663*4rw4--::22::::5qe8*:32-$-                              ",
"                                                                  2-26664--8rw84222248we02*342-$-                               ",
"                                                                   :-256662*-60eeeeeeq62*:433-&-*                               ",
"                                                                    2-2566653-**:22:-*-24443=&-=                                ",
"                                                                      -:366666543323345444,*&-                                  ",
"                                                                       :-2356766665655532-&-:                                   ",
"                                                                         -::2345555433:---;                                     ",
"                                                                            -:::::::---:                                        ",
"                                                                                 --                                             ",
"                                                                                                                                ",
"                                                                                                                                ",
"                                                                                                                                ",
"                                                                                                                                ",
"                                                                                                                                ",
"                                                                                                                                ",
"                                                                                                                                ",
"                                                                                                                                ",
"                                                                                                                                ",
"                                                                                                                                ",
"                                                                                                                                ",
"                                                                                                                                "
};
