/* XPM */
static char *mba7p_49jmc[] = {
/* columns rows colors chars-per-pixel */
"128 128 33 1 ",
"  c None",
". c #161615",
"X c #171817",
"o c #181817",
"O c #1B1C1B",
"+ c #242424",
"@ c #282827",
"# c #2B2B2B",
"$ c #353535",
"% c #373738",
"& c #3C3C3C",
"* c #444444",
"= c #474748",
"- c #4C4C4C",
"; c #4F504F",
": c #545454",
"> c #575857",
", c #585857",
"< c #575758",
"1 c #585758",
"2 c #5B5B5B",
"3 c #636363",
"4 c #6C6C6C",
"5 c #737373",
"6 c #7B7B7B",
"7 c #848484",
"8 c #8B8B8B",
"9 c #949494",
"0 c #9C9C9C",
"q c #A3A3A3",
"w c #ABABAB",
"e c #B3B3B3",
"r c #BABABA",
/* pixels */
"                                                                                                                                ",
"                                                                                                                                ",
"                                                                                                                                ",
"                                                                                                                                ",
"                                                                                                                                ",
"                                                                                                                                ",
"                                                                                                                                ",
"                                                                                                                                ",
"                                                          32,:-;-:3344                                                          ",
"                                                       32-*&%&&%$$$%*-343                                                       ",
"                                                      <***-::<<<:-=&&$%=232                                                     ",
"                                                    ,-*;233332,<:<<<:*&$&-22                                                    ",
"                                                   <*:34342***---=*&=:<=&$*,2                                                   ",
"                                                  --3444<*-470qqwq094-&;:&$&:<*                                                 ",
"                                                 -;4443*-7qw087776569q8;*:*$&:;                                                 ",
"                                                :;4543&4wq632:<:;;-&$-8q5&:*$*:-                                                ",
"                                               <-4543&7e6<-:222222222-%2q8*;*$*:&                                               ",
"                                               -4653&7e3-222,212,,,,,22*-08*:&%;=%                                              ",
"                                              :2554*6e2-22<21222222,2,,2;;07*;%*:%                                              ",
"                                             ::465-2e3-222222<;---:22<122-3q4*=%;*$                                             ",
"                                             :2663*q7*32222<;356752*-211:,-60;-&*-$                                             ",
"                                             -465-4w-,2222:28wwww9q9,-2<,:;105**&-&#                                            ",
"                                            :1664*q7*3222:2q07654228q3-2,:,;69-=%-&$                                            ",
"                                            ;2662<w,:2222:q93:$  *:27q,:,,:;3q3-&**#                                            ",
"                                            :466-4q-2222:7q2-      *308-<::::95=&*-#                                            ",
"                                            ;465*89=32222q5-        -60<;<::;88=*&-#                                            ",
"                                            ;565*97-222:3q3          5q3-,<:;78-=&-##                                           ",
"                                            ;565*97-322:5q2          304-,::-69;*&;##                                           ",
"                                            :564*97;222<5q2          204-<:<-68-*&-##                                           ",
"                                            ;465*89-222,3q5          402-:::;78-=&=@#                                           ",
"                                            -365-6q;2222:99          79=,::::86=**=+#                                           ",
"                                            =365<3w2,222:4w6        3q3-,<::,04*&**+                                            ",
"                                            -<553-q5:2222-6w6      4q6*,<:<;40<-&-$+                                            ",
"                                            --464*7q:22222-4q053348q6*:<:::;87**&-#+                                            ",
"                                            :-255,-w5-22222=-6000q84-<,::,-302=&**+#                                            ",
"                                             --454*6w<22<2,2;**33<--,,:<<:-97=-&-$+                                             ",
"                                             :*2452*00-<2<,<,2,:::<<:<:,:=60-:&&*+#                                             ",
"                                              --454;-w9-:22,,<<<<<<:<,,:=6q,--&-&O                                              ",
"                                              :*3543-:w02-22,<<<,::,,,--7q2=1&&-+#                                              ",
"                                               =<5532--0w5-=:2,2,,<:-=309:=,-&=&+$                                              ",
"                                               --56322-&5qq6,-=-===,59q6*-<:-%-$+                                               ",
"                                               <-4642222*=49q098890q95;*:<::*&-@#                                               ",
"                                                -46422222,**-355644;**;,::::*&-+$                                               ",
"                                                -3652<>22222:-****-;,,<<::::&**+                                                ",
"                                                -36521121,12222,21,,<:<::;:;&**+                                                ",
"                                                -365222,2,1,,<<<,:<:::::::::&**@                                                ",
"                                                -46522222,22<:::::::<,::::::&**+                                                ",
"                                                -46522,22<:<2334333,:;:,::::*&-#                                                ",
"                                                :4652,2<,2455544445554,;::::*&-#$                                               ",
"                                               :<66322<24543322232223454,;::*&-%$                                               ",
"                                               ;26632<45422223332333322453-:-%-*#                                               ",
"                                               ;4652<4532333222222222232354-:&*-$%                                              ",
"                                              ;,564<442332222222222222233254;*&-&$                                              ",
"                                              -366244323222222222222222223244=%*-%                                              ",
"                                             ::564452232222212112,222222222253*%-=&                                             ",
"                                            ,-4653533322221211,,<<<,1222233235;&&;*&                                            ",
"                                           2-3663542322222<<,::1,,:<<2,21223244*%*;**                                           ",
"                                          2-25643532222222<<,::1:::<<,,22222325:*&*;-=                                          ",
"                                         2=,555244232222,<::::::::<::<,,12223243-&%*-;;                                         ",
"                                       2;=246432532222,,,<,:::;::::::::<22222334;;&$&-::<                                       ",
"                                     3:*=35543,2532322,2,<::::;:;:::::<<,2222234:--*$&*-<22                                     ",
"                               44432-**<445432235232222,<::::;:;;;;;:::<,21223252;:-*&%&*-,2334444                              ",
"                          32<--**&&&*:34443222<343222,2<::::;:;;;:;::::<<,2222242-;;--*&%&&&*--::,2332                          ",
"                        2-**&****-<23444432222<4423222<<<:::;;;;;;;;:::<,12223342-:;----*&&&&$$$$$&*-,22                        ",
"                      ,-*=<2333233344333222222:4423222,<,::;:;;;;;;::::1112222243-;----;--===****&%%%&-:,-                      ",
"                     :=:3444444434333222222222<44232212<::::;;:;;;;;::::111223342-;--;;-----;;-;;;-*&%&&-;-                     ",
"                   ,--3555542:==***-:232222222<3522222,,1::::;;;;;;::::,1,2223251-;-;;-----=&&$$%&&*-*&%&=;=*                   ",
"                  <-<55644-*<47898852*=,22222,22533222221,:::::;::;:::,122222234:;-----;-&%=234442:*$&**&%*:*&                  ",
"                 2-25654:*40eeq0090qwq6--2222,2,532322211,<:::;:;::::1:122223334-;-;--;&&3787555567751%&*&%*-*&                 ",
"                 -26654&3qe052,<::--<5qe5*<3<22<4422222211<<<:::::::::1222222243-;--;-&2873-=***==:2466-$=&%=-&                 ",
"                -26663&7r93:<2232223<--4w0-;22123532222,21<:::<:::::11112222225:;;-;=&583**=------**&&:63$*&%-=$                ",
"               ::5653*9r5;,333322222232-:0q::222<442322222,,<<::111111122223244-;;;-&68-*---=-===-=--=$&54$*&&;&#               ",
"               -3664&8r3:3332332322222231-9q-,22,25322222222<<<<11111122223235:-;--&67**----------====-&$54$*$=-#               ",
"              :2665=5r3<3232332<<,2322222,-08*212<4523322221222111222222223252-;;;&48==--=---=***======-&*6,$&&;&#              ",
"              -3762:r6-323232:<332-=<22222:2w3-2<2:4522222222<2,2122222233244-;-;=;9;*;----=&*=-*-=*=*==-&;6**&*-@              ",
"              <565*8q-33333227qq00085222222-6q-2,,1<542332322222222222232244-;;;;&65&:----=,5655565-*=***=&43&&&;#@             ",
"             ;2663-r4:3233,3ww4-&&:8e8:2222,<q4-2,,<:4532232222222322332354-;;;;=:8;=-=--*474=$#&:47:&====*:5*&&;&+             ",
"             :366-6w-333323q0-      3w6;2,22-79-2<2,<:35432233233232232452-:-;;;&46&----*38:O     $37-*==***52&&**+             ",
"             :465*08-3232,0q:        4w<<222:4q:<2,<<<:24543223232233454:-:-;---&83*----:73        -45&==*=*44&&&-+             ",
"             :564*e4:323<4e4<        $06-2,2<,q3;2,,:<<::23555444445431--;;;;;;--8-=---=46$         36:*===*35*&*-#O            ",
"             :563:e3,333:804          60-2,22<04-2,<:<:,::;:2233332:;-;;;:;;;-:*18==--=-73          653&-*-&35=&&-#O            ",
"            ;:5622e22323:995          5q-222<-96-2,<,:<,,<:;***&&**-;::;;;;;;-;*27*---=182          874&*=**26-&&;#O            ",
"            -:462,e22233<996          4q-<2,,:05-2,:<:,:-*&%$&%&%%%&&*-;;:;;;-:&27*---=182          873*===&36-&&-#O            ",
"             :453:e2<323<8q7          70-22<2:05-,<<<:=&%&&*----;-*&%%%*-;;;--;*18*----;74          973*=***35=&*-@o            ",
"             -453-e5:323<5w88         07*2,<<2q3;2,,;&%&*-:--***=-;::=&$&=;;--;*-8-==--*46&        896:&=*=&45*&&-+O            ",
"             -354*08-3332,q087       6w2:222:3q<:,<*&&=;-&$#+      %*;:=&%*-:;--*81*---=-74       6865**=*==64*&*=O             ",
"             -<45-6w<2223<4eq97     6w6*22,2;79-,:*%*-=%#+            &;:&$*;:-;&55&----*,74     8866:&=*=*:62&&=&o             ",
"             --44,2r5<3223;5eq444568w7-2222,<q5-,*%=-&#+                *:*$*:<-*18*=-=--&27773344462&-*=-&46-&&-$o             ",
"              *244*9q223323;29wq90w05-,2<<2:5q::*$=-$++                   ,-&*<<-&73&;--=-&-5654564:&=**=*-73*&*-+o             ",
"              --34<3r7:322231=,5664:;112,,,2q6--&=-#+                      <*&-21&18-=---=-&*;232;*&-=*==*55-&&-&o              ",
"              ;*,44*7r6:3232331;::<222,,2<:90-;&&-$+                        2&&<1:$56==-=----**&&**==*==&362&&*-#o              ",
"               -*333*0e5:322222323222121<:7q,:&&-$+                          <&-22=&75==-=-=-===-==*===&264&*&=&o               ",
"               :&-33,=qe6:2322222232,22:,8w3--%-*+#                          <-&;1:**76:*=-=======*==**264**&*-@X               ",
"                -&-33:*9r8--33333222,;;40q2--%*-#+                            <*&;::&*674;**=-=====*&=364&&&&-$o                ",
"                 -&-231*5eq2&*--;;;;:48w8;;-%&-$+                              2*&-;;*$3774;&&&*&&&*:552&*&&;&o                 ",
"                 -=%=123*;8wq7543468qq93=:=%*-&+#                               :&%*--=$*4774;=*=,3553=&*&&-*+.                 ",
"                  *-&&;<3:*-480qqq085,--:&%*-&+@                                 :*%&*-;*%&;3565553;&&&*%*-*Oo                  ",
"                    -&$*-<2<-*==--=--:-*$&-;&@+                                   :-&$&&*-*&%%&&&%%&*&%&-;&Oo                   ",
"                     -*&$&*=::<::::-*&&%*--$+                                      ;:=%%%&&****&*&*&&&=;=#O                     ",
"                      *:-&$$$%%&&&%$%&*:;&#+                                        &-:-*&%%$%%$$%&*-;-%+.                      ",
"                        *;;;=*&&&**-;:-*$O                                            &-;;;;-=--;;:;*$@o                        ",
"                           =-:::::--*$#                                                  %&==-==*&$#+                           ",
"                                                                                                                                ",
"                                                                                                                                ",
"                                                                                                                                ",
"                                                                                                                                ",
"                                                                                                                                ",
"                                                                                                                                ",
"                                                                                                                                ",
"                                                                                                                                ",
"                                                                                                                                ",
"                                                                                                                                ",
"                                                                                                                                ",
"                                                                                                                                ",
"                                                                                                                                ",
"                                                                                                                                ",
"                                                                                                                                ",
"                                                                                                                                ",
"                                                                                                                                ",
"                                                                                                                                ",
"                                                                                                                                ",
"                                                                                                                                ",
"                                                                                                                                ",
"                                                                                                                                ",
"                                                                                                                                ",
"                                                                                                                                ",
"                                                                                                                                ",
"                                                                                                                                "
};
