/* XPM */
static char *_2m3h_kxxzg[] = {
/* columns rows colors chars-per-pixel */
"128 128 33 1 ",
"  c None",
". c #161615",
"X c #171817",
"o c #181817",
"O c #1B1C1B",
"+ c #242424",
"@ c #282827",
"# c #2B2B2B",
"$ c #353535",
"% c #373738",
"& c #3C3C3C",
"* c #444444",
"= c #474748",
"- c #4C4C4C",
"; c #4F504F",
": c #545454",
"> c #575857",
", c #585857",
"< c #575758",
"1 c #585758",
"2 c #5B5B5B",
"3 c #636363",
"4 c #6C6C6C",
"5 c #737373",
"6 c #7B7B7B",
"7 c #848484",
"8 c #8B8B8B",
"9 c #949494",
"0 c #9C9C9C",
"q c #A3A3A3",
"w c #ABABAB",
"e c #B3B3B3",
"r c #BABABA",
/* pixels */
"                                                                                                                                ",
"                                                                                                                                ",
"                                                                                                                                ",
"                                                                                                                                ",
"                                                                                                                                ",
"                                                                                                                                ",
"                                                                                                                                ",
"                                                                                                                                ",
"                                                                                                                                ",
"                                                                                                                                ",
"                                                                                                                                ",
"                                                                                                                                ",
"                                                                                                                                ",
"                                                                                                                                ",
"                                                                                                                                ",
"                                                                                                                                ",
"                                                                                                                                ",
"                                                                                                                                ",
"                                                                                                                                ",
"                                                                                                                                ",
"                                                                                                                                ",
"                                                                                                                                ",
"                                                                                                                                ",
"                                                                                                                                ",
"                                                                                                                                ",
"                                                                                                                                ",
"                           +@$&*=-==-&&                                                  +%*-;::::;-=                           ",
"                        o+%*-::-===-;;:;-&                                            +$*-::-=&&&***-;;*                        ",
"                      .+&-:-*&&%$%$$%%&&-:-&                                        +#&;--&%%%&&&%%$%%&--*                      ",
"                     O#--*&&&&&******&&%%%*:-                                      +$--*%%&=-:;::>::=*&$&=-                     ",
"                   .O&--&&&&&&&&&%%&&*==&&%&-:                                   +@&--&%*-:-==--==*-,2,-*%&-                    ",
"                  OO*-*&&&&&:3455653:&%*;=*&$*>                                 @+&;*%&:-->590qqq084-*:3,;&&-=                  ",
"                 oO*-&%*&=3554:=**;4773*$*--*%&,                               @+&-*%=:=29w08643448qw8;*23>*%--                 ",
"                 o&;&&*&,55,&&&&*&&&;5783$*:;-&&,                              +$-*%--;8w93:---:;-*&2qe5*132-%-                 ",
"                o$;&&*&453*&*-==----**-476*&::;&*2                            @@-*%--2q04::>23333333--8r9=:32;&;                ",
"               .+-*&**462*==*===**=*=-=*:67*&,,:&-,                          #+*=%--3w8>:22,222222223,:7eq=:42-&:               ",
"               O&-&**462**=*==*=-**-=-=-=*57&-,2;&,                          +%-&*;,q8:>22>122323222223:5e0*243**               ",
"              .@;&&&263&*=**=***&**--=-=--*65$:,1&&2                        +$-&%;-09:>1>1222::;:2322223:6e8*341*:              ",
"              O&-&*;55&==*=***;232:*&-----=-8,&,,-&*1                      @#-*%--5w2>1>12>-:4665,-,32223:7r2>44--              ",
"             .+-*&&36:*-*==*;4554565-&-----*37&-,:=%-,                   ++$-=%*::q5;21222-50w00qw92:32332,q0*442*              ",
"             .$-&&;64&=*==&25544437772&-=--**8,&::;=%*1*                +@&-=&*:-5q:12122-7w965444qw5;3323:5r2<44-;             ",
"             O&=&&,6,*=*=&:6688     472&----*45&;-:-*%&1:&            +#%--*%*:2-97;2112=6w5     79ww4>2232:w6=54>-             ",
"             O**&*46******4796       47-*---*,8*---:-=%%=:-*%      +#$&-;=&%*>,>,q3:2,2:2w6       78qq22323;8q*453-             ",
"            O+-*&*54***-&,697        &64*-----8;=:--;-=&$&=::;-=***--:;*&&&-,,1-4q1,,22=70         88w5>333:4e-353-             ",
"            O+-&&-53&=*=&379          47--=--*7,*---;;;-*&%%&*--;---*&&%&=:1>:2-50:,212=06          6q8>32312e:364-             ",
"            O@:&&;63*=*=*478          28,=---*73*;-;;;;;--*&&%%%%%%%%&*-:11,:>2-59;2,22-q5          699:32322e2265:-            ",
"            O#-&&-62&-==&477          37,=---*72*-;;;;;;:;:--=***&*=-;:>>::>1,2-69;221,;q5          599>32311e2265:-            ",
"            O#-&&=53&==-&356          37----==8,=;;;;;;;;:-;,2233322:::>1:1:>>2-4q:1222-06          4q8>333>3e:365>             ",
"            ++-&&*43**=-*:63         $64*---=-8----:--:--,3554544555541::>::112:3q2>212-60$        :5e4<333:4w-465:             ",
"             +=*&&44*****&54=        37:*---*38&---:::-:45432222222234541:>>111>>q4;222>,w5        :q9>3223-80*564:             ",
"             +**&&25=**--*;63$     O>83*----&64&:-:-:-35432233233323322453:>>112=97-2222-6w3      -0q323322-w6-663-             ",
"             +&-&&*6:*=**-&,74;&@%*473-----=-9:*-;-:-3532233222222222322354>>212-4w>12122:8e7>&&-4ww323233:4r:3662:             ",
"             @#-&&&34&-*-*-&;5655565>------*57&-----452222222222222222233245>2122=q6-22222258q00qq82232333-q8*565>              ",
"              @-=&&*6;&-***-**-*-**&*----;*:9-*:;:-44223222222111222222223244:2>2-3w2:22222>*-232>:233323-6r:2664-              ",
"              +&;&&&>6&*-*-*-=****-----*-==84%:-:-252323222212112,122222223254:122*8q-122222222>22323223>3r5-566>:              ",
"               $-*&&$45%&;**-*----=-----**76&----;53222222121111>>1112222323252112,=q9=>322222223323333:3r8&4663-               ",
"               #&;&&*%45&$*=------=----&-87&=;-:-3423222121111:11::>11222232244<222::q0:-2322222223332-5r9*3665::               ",
"                $*-&&*$37:&&***-----=&*485&*:--;:53322222111:1:1:>:>>>12222232531122:-0w4=-223222322:29r7&35662-                ",
"                 &-*%&*$-6642:-*****-4782%=;-;;-3422222211::::::::::>:1122223244>2212>*6wq51;;>:>2259rw3*35662-                 ",
"                 &&;*%&=&%,577654557872&&;-;--;-4323222111:1::;::::::>:1>1222235,222222*-7qwq0990qee04*;55652-2                 ",
"                  &*;*%%**&$*;24444>*%&-;;--;-;;53222221:,::;:;:;;::::>><222232522212223,=*,5889874:*-355552->                  ",
"                   *=;=&%&*-*&%&%&&&*-;----;;;-142322221,::::;:;;;;::::><22223253,222222232:-=**==:2455553-->                   ",
"                     -:-&%&&*-;;-;;;;----;---;;252322111:1::;:;;;:;:::::>12222244:2222222123334444454443;*:                     ",
"                      ->,=&%%&&*****==-----;-;-342312211,::;;;;;;;;;:::>>22223344,2222222344433223332>=*-2                      ",
"                        ,22-*&$%$$$&%&&*=-;--;-24232221>1:::;;;;;;:;;:1>>11222244122223344432:-*****&*-2                        ",
"                          2332,;;;-*&&&%&*=;;:-24232212>::::::;:;;-::::1112223253>22234443>=&&&**-->23                          ",
"                              44444321;*&%&=;;-2522221211:::;:;;:-:::::<1222232532234554:**-23454                               ",
"                                     221;*%%*--:5332221>11:::;:;;:;:::,1212222352234553**:3                                     ",
"                                       :::-&%&;-432322221:1::::;:::::11112222335234552*:2                                       ",
"                                         ;;;*%*-3422222211:1:,::::1::112222332442565>*2                                         ",
"                                          ==;*%*>5322221211<:::>::::1111222223534652*2                                          ",
"                                           **:&&*44232222211,:>:::11111222232443653-2                                           ",
"                                            &*;&&;52332222212,>>>>>221222223353564->                                            ",
"                                             &=-%*3522222222211211221222223253465>:                                             ",
"                                              %-&&-442322222222122222223332442663-                                              ",
"                                              $&-&*;4523232222222222222222552466::                                              ",
"                                              %$-**;;4532322222222222322254>2564-                                               ",
"                                               #*=%-:;35422333232323223454123662:                                               ",
"                                               $$-%=::;,45433222222334543>21466::                                               ",
"                                               $#-&*:::;:14455544455543><221465;                                                ",
"                                                #=*&::1:::;:,2434332>:1222,2474;                                                ",
"                                                @**&;:;1::111:;::>:<12,21222563;                                                ",
"                                                @**&::;:::::,:,,>>>121122222563;                                                ",
"                                                +**&;1::::1:,,,22212>>211222563-                                                ",
"                                                +=*&;::::,1,:-=***->22122212563=                                                ",
"                                               $+=&*::::1;==:355653-**>22222464-                                                ",
"                                               ##-&*1:,:*-59q088890q05**2212464-:                                               ",
"                                               +#-&=:,-=6q95,=-==*=25qq4&:22355;;                                               ",
"                                              $+&-&;,=;903=-;>,,221:=-5w0*-22551-                                               ",
"                                              @+-&&,=2q7--,11>:>>,>122-20w>-3453*:                                              ",
"                                              O&-%=-,06=:11>:1>>11>><12>;9w=;454--                                              ",
"                                             @+-*&;=07=1>>:>11>:>121>>>21;00*2452*:                                             ",
"                                             +%-%-=79;:>::11--,32**;2>112>1w6*454--                                             ",
"                                            #+=&&-2q3-:::1:-48q0q06-*22212;5e-1552=:                                            ",
"                                            +@-&==78-::>::*6q843250w5-22222;q7*454--                                            ",
"                                            +%-&=:04;1::>*7q4      6w6-2222:5w*365>-                                            ",
"                                            +**&-40>:::>-3q3        5w4>22222w3:552-                                            ",
"                                           #+=&**68::::>*97          99>2222;q6-664-                                            ",
"                                           #@-**-87->:>-,04          5q31222;98=564;                                            ",
"                                           #@-&*-96->:<-402          2q5>222-79*564:                                            ",
"                                           ##-&*-96;::1-403          2q4:222-79*465:                                            ",
"                                           #$-&*=87-::>-305          3q4>222-79*565:                                            ",
"                                            #-&*=88-:::;:q7-        -6q12223=98*574-                                            ",
"                                            #-*&=50:::>1=803=      *2q7;2222=w4-663:                                            ",
"                                            #**&-303;:11;1q82;&  %:39q:,222>,w>2662;                                            ",
"                                            #&-&=-97;,:,2-3q8225567qq3>2222=7q*465>:                                            ",
"                                            $&-&*=501::,,2-,8q0wwwq82:22222-w4-564:                                             ",
"                                             $-*&-;06-,,,12;=256653;>21223*7q*3562:                                             ",
"                                             $*-%=*4q3-,,1,22;----:2222,3=3e2-565-:                                             ",
"                                              &-&%-*70;-2,12112222221222-2e6*4562:                                              ",
"                                              %*:%&:*80=*221212>2221222-3e7&3563-                                               ",
"                                               *;=%=:*8q2%-222222222>;:6e7&3454->                                               ",
"                                                =:*%=;*4q8;%&-;:-::>36qw4&3454;:                                                ",
"                                                 ;:&$*:*;7w955667790ww7-*3444-;                                                 ",
"                                                 *>:&%&:;*-490qwwq074**24443-:                                                  ",
"                                                   ,,*$%=:;***----**=23333>*:                                                   ",
"                                                    22;%$&=:2>>::1233332:*-2                                                    ",
"                                                     242*%$%&*-::>>::-***:                                                      ",
"                                                       343;&%$$%&&&&&*-23                                                       ",
"                                                          4432::-;;123                                                          ",
"                                                                                                                                ",
"                                                                                                                                ",
"                                                                                                                                ",
"                                                                                                                                ",
"                                                                                                                                ",
"                                                                                                                                ",
"                                                                                                                                ",
"                                                                                                                                "
};
